<svg width="71" height="73" viewBox="0 0 71 73" fill="none" xmlns="http://www.w3.org/2000/svg">
<path d="M61.9886 8.61406H47.1418C44.4591 8.62014 44.5595 11.4672 47.1418 11.4504H61.9886V12.9059H47.1418C44.4741 12.8892 44.5723 15.7347 47.1418 15.7423H61.9886V17.2296H47.1418C44.4741 17.2296 44.5723 20.0736 47.1418 20.066H61.9886V21.4834H47.1418C44.5296 21.4971 44.5723 24.3441 47.1418 24.3533H61.9886V25.7737H47.1418C44.5296 25.7677 44.5189 28.6101 47.1418 28.6101H61.9886V30.0275H47.1418C44.5296 30.0336 44.5189 32.8791 47.1418 32.8654H61.9886V34.3178H47.1418C44.5296 34.3011 44.5189 37.1436 47.1418 37.1542H61.9886V38.5686H47.1418C44.5296 38.5671 44.5723 41.4156 47.1418 41.4065H61.9886V69.0235C61.9971 73.2317 70.9744 73.1556 71 69.0235V4.39524C70.9744 2.47289 68.7573 0.0425836 65.1091 0.0349794H47.1418C44.4591 0.0365003 44.5595 2.88352 47.1418 2.87135L61.9886 2.90633V4.32072H47.1418C44.4634 4.31159 44.5638 7.15709 47.1418 7.15861H61.9886V8.61406V8.61406ZM46.1208 57.5761C46.1123 52.6638 38.9613 47.3804 30.4176 50.8023V32.0138L24.892 1.02657C24.7766 0.206835 23.8005 0.0136876 23.1448 0C22.4677 0.0136876 21.1114 0.206835 20.964 1.02657L15.4662 32.0138V50.8023C6.92251 47.3804 0.00213592 52.6972 0 57.5381C0.00213592 61.8451 4.65843 65.3826 10.9594 65.372C17.3073 65.3826 21.8739 61.4178 21.8739 57.5381V38.0211H24.0098V57.5381C24.0098 61.8816 28.7345 65.0967 33.9846 65.3005C33.897 67.6821 34.9884 71.0797 37.0432 72.4271C39.4525 74.0088 42.3211 71.9861 41.1442 70.339C40.0079 68.806 38.8929 67.8981 39.7985 64.5507C43.5834 63.3036 46.1123 60.6786 46.1208 57.5761V57.5761ZM11.2029 61.4406C9.76261 61.4406 8.38132 61.0332 7.36289 60.308C6.34446 59.5829 5.77231 58.5993 5.77231 57.5738C5.77231 56.5483 6.34446 55.5648 7.36289 54.8396C8.38132 54.1145 9.76261 53.7071 11.2029 53.7071C14.1633 53.7192 16.5747 55.4484 16.5961 57.5761C16.59 58.5955 16.0209 59.5722 15.0118 60.2953C14.0026 61.0184 12.6345 61.4298 11.2029 61.4406V61.4406ZM29.5098 57.5761C29.5148 56.5558 30.0836 55.5779 31.0933 54.8538C32.1029 54.1298 33.4723 53.7179 34.9051 53.7071C36.3385 53.7163 37.7089 54.1278 38.7187 54.8522C39.7285 55.5766 40.2961 56.5555 40.2983 57.5761C40.2961 58.5963 39.7283 59.5747 38.7183 60.2984C37.7084 61.0221 36.3379 61.4326 34.9051 61.4406C33.4727 61.4314 32.103 61.0206 31.0931 60.2972C30.0831 59.5738 29.5143 58.5961 29.5098 57.5761V57.5761Z" fill="black"/>
</svg>
