<svg width="44" height="44" viewBox="0 0 91 83" fill="" xmlns="http://www.w3.org/2000/svg">
<path d="M73.9375 4.15C73.9375 1.55625 71.6625 0 69.3875 0H68.25C58.5812 0 51.1875 9.85625 51.1875 24.3812V29.05C51.1875 34.2375 54.0312 38.9062 59.15 41.5C57.4437 47.725 56.875 54.4688 56.875 54.4688V75.2188C56.875 79.3688 60.8562 83 65.4062 83C69.9563 83 73.9375 79.3688 73.9375 75.2188V54.4688C73.9375 52.3937 73.3687 47.2062 72.2312 42.5375C73.3687 41.5 73.9375 40.4625 73.9375 38.9062V4.15Z"/>
<path d="M40.95 0H39.8125V18.1562C39.8125 19.7125 38.675 20.75 36.9688 20.75C35.2625 20.75 34.125 19.7125 34.125 18.1562V2.59375C34.125 1.0375 32.9875 0 31.2812 0C29.575 0 28.4375 1.0375 28.4375 2.59375V18.1562C28.4375 19.7125 27.3 20.75 25.5938 20.75C23.8875 20.75 22.75 19.7125 22.75 18.1562V0H21.6125C19.3375 0 17.0625 2.075 17.0625 4.15V23.3438C17.0625 28.5312 20.475 33.2 25.5938 35.275C23.3187 43.575 22.75 54.4688 22.75 54.4688V75.2188C22.75 79.3688 26.7312 83 31.2812 83C35.8313 83 39.8125 79.3688 39.8125 75.2188V54.4688C39.8125 51.875 39.2437 42.5375 37.5375 35.275C42.0875 33.2 45.5 28.5312 45.5 23.3438V4.15C45.5 2.075 43.225 0 40.95 0Z"/>
</svg>
