<svg width="100" height="100" viewBox="0 0 100 100" fill="none" xmlns="http://www.w3.org/2000/svg">
<path d="M50 8.33334C27 8.33334 8.33337 27 8.33337 50C8.33337 73 27 91.6667 50 91.6667H70.8334V83.3333H50C31.9167 83.3333 16.6667 68.0833 16.6667 50C16.6667 31.9167 31.9167 16.6667 50 16.6667C68.0834 16.6667 83.3334 31.9167 83.3334 50V55.9583C83.3334 59.25 80.375 62.5 77.0834 62.5C73.7917 62.5 70.8334 59.25 70.8334 55.9583V50C70.8334 38.5 61.5 29.1667 50 29.1667C38.5 29.1667 29.1667 38.5 29.1667 50C29.1667 61.5 38.5 70.8333 50 70.8333C55.75 70.8333 61 68.5 64.75 64.7083C67.4584 68.4167 72.125 70.8333 77.0834 70.8333C85.2917 70.8333 91.6667 64.1667 91.6667 55.9583V50C91.6667 27 73 8.33334 50 8.33334ZM50 62.5C43.0834 62.5 37.5 56.9167 37.5 50C37.5 43.0833 43.0834 37.5 50 37.5C56.9167 37.5 62.5 43.0833 62.5 50C62.5 56.9167 56.9167 62.5 50 62.5Z" fill="black"/>
</svg>
