<svg width="482" height="85" viewBox="0 0 482 85" fill="none" xmlns="http://www.w3.org/2000/svg">
<path d="M52.2875 72.2885C52.2875 72.2885 28.075 74 15.0375 60.3081C2 46.6162 2 5.54056 2 5.54056C2 5.54056 46.7 3.82908 61.6 14.098C76.5 24.3669 72.775 53.4622 72.775 53.4622" stroke="#344E41" stroke-width="4" stroke-linecap="round" stroke-linejoin="round"/>
<path d="M52.2875 72.2885C52.2875 72.2885 28.075 74 15.0375 60.3081C2 46.6162 2 5.54056 2 5.54056C2 5.54056 46.7 3.82908 61.6 14.098C76.5 24.3669 72.775 53.4622 72.775 53.4622" stroke="#344E41" stroke-width="4" stroke-linecap="round" stroke-linejoin="round"/>
<path d="M42.975 46.6162L24.35 44.9047M76.5 74C76.5 74 55.6772 59.5397 42.975 46.6162C30.2727 33.6911 24.35 20.9439 24.35 20.9439L76.5 74ZM42.975 46.6162L44.8375 24.3669L42.975 46.6162Z" stroke="#344E41" stroke-width="4" stroke-linecap="round" stroke-linejoin="round"/>
<path d="M109.19 30.9C113.81 30.9 117.473 32.2533 120.18 34.96C122.933 37.62 124.31 41.5167 124.31 46.65V68H119.34V47.14C119.34 43.3133 118.383 40.3967 116.47 38.39C114.557 36.3833 111.827 35.38 108.28 35.38C104.313 35.38 101.163 36.57 98.83 38.95C96.5433 41.2833 95.4 44.5267 95.4 48.68V68H90.43V31.18H95.19V37.97C96.5433 35.73 98.41 34.0033 100.79 32.79C103.217 31.53 106.017 30.9 109.19 30.9ZM150.683 30.9C155.49 30.9 159.176 32.1133 161.743 34.54C164.31 36.92 165.593 40.4667 165.593 45.18V68H160.833V62.26C159.713 64.1733 158.056 65.6667 155.863 66.74C153.716 67.8133 151.15 68.35 148.163 68.35C144.056 68.35 140.79 67.37 138.363 65.41C135.936 63.45 134.723 60.86 134.723 57.64C134.723 54.5133 135.843 51.9933 138.083 50.08C140.37 48.1667 143.986 47.21 148.933 47.21H160.623V44.97C160.623 41.7967 159.736 39.3933 157.963 37.76C156.19 36.08 153.6 35.24 150.193 35.24C147.86 35.24 145.62 35.6367 143.473 36.43C141.326 37.1767 139.483 38.2267 137.943 39.58L135.703 35.87C137.57 34.2833 139.81 33.07 142.423 32.23C145.036 31.3433 147.79 30.9 150.683 30.9ZM148.933 64.43C151.733 64.43 154.136 63.8 156.143 62.54C158.15 61.2333 159.643 59.3667 160.623 56.94V50.92H149.073C142.773 50.92 139.623 53.1133 139.623 57.5C139.623 59.6467 140.44 61.35 142.073 62.61C143.706 63.8233 145.993 64.43 148.933 64.43ZM194.489 68.35C190.849 68.35 187.582 67.5567 184.689 65.97C181.842 64.3833 179.602 62.1667 177.969 59.32C176.335 56.4267 175.519 53.1833 175.519 49.59C175.519 45.9967 176.335 42.7767 177.969 39.93C179.602 37.0833 181.842 34.8667 184.689 33.28C187.582 31.6933 190.849 30.9 194.489 30.9C197.662 30.9 200.485 31.53 202.959 32.79C205.479 34.0033 207.462 35.8 208.909 38.18L205.199 40.7C203.985 38.88 202.445 37.5267 200.579 36.64C198.712 35.7067 196.682 35.24 194.489 35.24C191.829 35.24 189.425 35.8467 187.279 37.06C185.179 38.2267 183.522 39.9067 182.309 42.1C181.142 44.2933 180.559 46.79 180.559 49.59C180.559 52.4367 181.142 54.9567 182.309 57.15C183.522 59.2967 185.179 60.9767 187.279 62.19C189.425 63.3567 191.829 63.94 194.489 63.94C196.682 63.94 198.712 63.4967 200.579 62.61C202.445 61.7233 203.985 60.37 205.199 58.55L208.909 61.07C207.462 63.45 205.479 65.27 202.959 66.53C200.439 67.7433 197.615 68.35 194.489 68.35ZM345.439 30.9C350.246 30.9 353.932 32.1133 356.499 34.54C359.066 36.92 360.349 40.4667 360.349 45.18V68H355.589V62.26C354.469 64.1733 352.812 65.6667 350.619 66.74C348.472 67.8133 345.906 68.35 342.919 68.35C338.812 68.35 335.546 67.37 333.119 65.41C330.692 63.45 329.479 60.86 329.479 57.64C329.479 54.5133 330.599 51.9933 332.839 50.08C335.126 48.1667 338.742 47.21 343.689 47.21H355.379V44.97C355.379 41.7967 354.492 39.3933 352.719 37.76C350.946 36.08 348.356 35.24 344.949 35.24C342.616 35.24 340.376 35.6367 338.229 36.43C336.082 37.1767 334.239 38.2267 332.699 39.58L330.459 35.87C332.326 34.2833 334.566 33.07 337.179 32.23C339.792 31.3433 342.546 30.9 345.439 30.9ZM343.689 64.43C346.489 64.43 348.892 63.8 350.899 62.54C352.906 61.2333 354.399 59.3667 355.379 56.94V50.92H343.829C337.529 50.92 334.379 53.1133 334.379 57.5C334.379 59.6467 335.196 61.35 336.829 62.61C338.462 63.8233 340.749 64.43 343.689 64.43ZM373.848 16.06H378.818V68H373.848V16.06ZM412.174 65.76C411.24 66.6 410.074 67.2533 408.674 67.72C407.32 68.14 405.897 68.35 404.404 68.35C400.95 68.35 398.29 67.4167 396.424 65.55C394.557 63.6833 393.624 61.0467 393.624 57.64V35.38H387.044V31.18H393.624V23.13H398.594V31.18H409.794V35.38H398.594V57.36C398.594 59.5533 399.13 61.2333 400.204 62.4C401.324 63.52 402.91 64.08 404.964 64.08C405.99 64.08 406.97 63.9167 407.904 63.59C408.884 63.2633 409.724 62.7967 410.424 62.19L412.174 65.76ZM421.221 31.18H426.191V68H421.221V31.18ZM423.741 23.13C422.714 23.13 421.851 22.78 421.151 22.08C420.451 21.38 420.101 20.54 420.101 19.56C420.101 18.6267 420.451 17.81 421.151 17.11C421.851 16.41 422.714 16.06 423.741 16.06C424.768 16.06 425.631 16.41 426.331 17.11C427.031 17.7633 427.381 18.5567 427.381 19.49C427.381 20.5167 427.031 21.38 426.331 22.08C425.631 22.78 424.768 23.13 423.741 23.13ZM474.11 31.18V63.52C474.11 69.7733 472.57 74.3933 469.49 77.38C466.457 80.4133 461.86 81.93 455.7 81.93C452.293 81.93 449.05 81.4167 445.97 80.39C442.937 79.41 440.463 78.0333 438.55 76.26L441.07 72.48C442.843 74.0667 444.99 75.3033 447.51 76.19C450.077 77.0767 452.76 77.52 455.56 77.52C460.227 77.52 463.657 76.4233 465.85 74.23C468.043 72.0833 469.14 68.7233 469.14 64.15V59.46C467.6 61.7933 465.57 63.5667 463.05 64.78C460.577 65.9933 457.823 66.6 454.79 66.6C451.337 66.6 448.187 65.8533 445.34 64.36C442.54 62.82 440.323 60.6967 438.69 57.99C437.103 55.2367 436.31 52.1333 436.31 48.68C436.31 45.2267 437.103 42.1467 438.69 39.44C440.323 36.7333 442.54 34.6333 445.34 33.14C448.14 31.6467 451.29 30.9 454.79 30.9C457.917 30.9 460.74 31.53 463.26 32.79C465.78 34.05 467.81 35.87 469.35 38.25V31.18H474.11ZM455.28 62.19C457.94 62.19 460.343 61.63 462.49 60.51C464.637 59.3433 466.293 57.7333 467.46 55.68C468.673 53.6267 469.28 51.2933 469.28 48.68C469.28 46.0667 468.673 43.7567 467.46 41.75C466.293 39.6967 464.637 38.11 462.49 36.99C460.39 35.8233 457.987 35.24 455.28 35.24C452.62 35.24 450.217 35.8 448.07 36.92C445.97 38.04 444.313 39.6267 443.1 41.68C441.933 43.7333 441.35 46.0667 441.35 48.68C441.35 51.2933 441.933 53.6267 443.1 55.68C444.313 57.7333 445.97 59.3433 448.07 60.51C450.217 61.63 452.62 62.19 455.28 62.19Z" fill="#A3B18A"/>
<path d="M260.672 19V68H255.562V45.39H224.902V68H219.722V19H224.902V40.84H255.562V19H260.672ZM317.616 19V68H312.506V45.39H281.846V68H276.666V19H281.846V40.84H312.506V19H317.616Z" fill="#344E41"/>
</svg>
