<svg width="44" height="44" viewBox="0 0 67 84" fill="none" xmlns="http://www.w3.org/2000/svg">
<path d="M63.9545 21H51.0114V19.32C51.0114 8.652 43.1693 0 33.5 0C23.8307 0 15.9886 8.652 15.9886 19.32V21H3.04545C1.36094 21 0 22.5015 0 24.36V80.64C0 82.4985 1.36094 84 3.04545 84H63.9545C65.6391 84 67 82.4985 67 80.64V24.36C67 22.5015 65.6391 21 63.9545 21ZM22.8409 19.32C22.8409 12.8205 27.6089 7.56 33.5 7.56C39.3911 7.56 44.1591 12.8205 44.1591 19.32V21H22.8409V19.32ZM60.1477 76.44H6.85227V28.56H15.9886V37.8C15.9886 38.262 16.3312 38.64 16.75 38.64H22.0795C22.4983 38.64 22.8409 38.262 22.8409 37.8V28.56H44.1591V37.8C44.1591 38.262 44.5017 38.64 44.9205 38.64H50.25C50.6687 38.64 51.0114 38.262 51.0114 37.8V28.56H60.1477V76.44Z" fill="black"/>
</svg>
